<?xml version="1.0" encoding="utf-8"?>
<!-- Generator: Adobe Illustrator 25.4.1, SVG Export Plug-In . SVG Version: 6.00 Build 0)  -->
<svg version="1.1" id="Layer_1" xmlns="http://www.w3.org/2000/svg" xmlns:xlink="http://www.w3.org/1999/xlink" x="0px" y="0px"
	 viewBox="0 0 360 360" style="enable-background:new 0 0 360 360;" xml:space="preserve">
<style type="text/css">
	.st0{fill:#FEB201;}
	.st1{fill:#995204;}
	.st2{fill:#00BBD4;}
	.st3{fill:#689E39;}
	.st4{fill:#016B6B;}
	.st5{fill:#8BC24A;}
	.st6{fill:#5D4038;}
	.st7{fill:#FDD502;}
	.st8{fill:#2296F2;}
	.st9{fill:#3D2622;}
	.st10{fill:#F44337;}
	.st11{fill:#C52827;}
	.st12{fill:#FDC108;}
	.st13{fill:#FDC109;}
	.st14{fill:#FEED57;}
	.st15{fill:#FDED58;}
	.st16{fill:#FDC008;}
	.st17{fill:#FDED57;}
	.st18{fill:#FDC009;}
	.st19{fill:#F7E69F;}
	.st20{fill:#FEC008;}
	.st21{fill:#8BC24B;}
	.st22{fill:#DBE675;}
	.st23{fill:#FB3E03;}
	.st24{fill:#FA3E03;}
	.st25{fill:#FBE93B;}
	.st26{fill:#317E31;}
	.st27{fill:#FDB203;}
	.st28{fill:#2396F0;}
	.st29{fill:#3F51B4;}
	.st30{fill:#FDDF7E;}
	.st31{fill:#309BEE;}
	.st32{fill:#2B97EA;}
	.st33{fill:#2C97EA;}
	.st34{fill:#FBDD7B;}
	.st35{fill:#FBDC79;}
	.st36{fill:#FCDD7D;}
	.st37{fill:#FCDD7C;}
	.st38{fill:#FBDE7F;}
	.st39{fill:#FCDF80;}
	.st40{fill:#FFFFFF;}
	.st41{fill:#C52828;}
	.st42{fill:#EE9899;}
	.st43{fill:#9D9D24;}
	.st44{fill:#FED44F;}
	.st45{fill:#8C6E63;}
	.st46{fill:#8D6E63;}
	.st47{fill:#BFC933;}
	.st48{fill:#FCB306;}
	.st49{fill:#FAB409;}
	.st50{fill:#D50000;}
	.st51{fill:#FDE47F;}
	.st52{fill:#FE9F00;}
	.st53{fill:#90C9F7;}
	.st54{fill:#FDC928;}
	.st55{fill:#FCC305;}
	.st56{fill:#FC897E;}
	.st57{fill:#FCC405;}
	.st58{fill:#FBC507;}
	.st59{fill:#FBC60F;}
	.st60{fill:#FCD44F;}
	.st61{fill:#FE9701;}
	.st62{fill:#FD3D02;}
	.st63{fill:#8C6E62;}
	.st64{fill:#FE3D00;}
	.st65{fill:#3F2822;}
	.st66{fill:#402821;}
	.st67{fill:#699F38;}
	.st68{fill:#699F39;}
	.st69{fill:#FAD251;}
	.st70{fill:#F9D250;}
	.st71{fill:#EE6C02;}
	.st72{fill:#FDCB7F;}
	.st73{fill:#EE6C01;}
	.st74{fill:#FECB7F;}
	.st75{fill:#FCCB7F;}
	.st76{fill:#BE360C;}
	.st77{fill:#ED6C02;}
	.st78{fill:#8FCAF8;}
	.st79{fill:#BADDFA;}
	.st80{fill:#9B8178;}
	.st81{fill:#FCCC81;}
	.st82{fill:#31B954;}
	.st83{fill:#31BA54;}
	.st84{fill:#31BA55;}
	.st85{fill:#30BA55;}
	.st86{fill:#2EBB52;}
	.st87{fill:#30BA54;}
	.st88{fill:#30BA53;}
	.st89{fill:#2FBB52;}
	.st90{fill:#32B953;}
</style>
<g>
	<path class="st20" d="M284.45,109.19c-4.26,31.31-2.84,63.06-7.36,94.38c-1.38,9.57-0.12,19.5-1.08,29.17
		c-3.17,31.76-3,63.76-7.3,95.44c-0.93,6.86-0.49,13.89-0.87,20.84c-0.4,7.5-3.26,10.41-10.84,10.43
		c-48.34,0.09-96.68,0.09-145.02,0.02c-8.66-0.01-10.63-2.32-11.19-11.14c-2.01-31.51-4.01-63.02-6.19-94.53
		c-1.94-28.03-4.52-56.02-6.03-84.07c-0.84-15.6-1.35-31.18-3.68-46.66c-0.71-4.76-0.99-9.71,0.44-14.5
		c3.33-1.97,6.31-4.26,7.63-8.11c2.42,0.06,4.84,0.23,7.25,0.17c3.78-0.09,8.16,0.8,11.18-0.81c3.68-1.95,1.12-7.02,2.19-10.54
		c1.05-3.45,1.08-8.02,6.68-7.26c7.42,1,10.8,4.51,10.13,10.38c-1.07,9.28-1.07,9.28,7.8,12.32c6.38-1.77,10.63,5.04,16.79,4.18
		c6.44,5.43,15.19,5.97,22.11,10.64c8.11,5.47,8.37,5.08,15.5-2.08c2.44,0.01,4.77-0.24,6.91-1.68c7.89-5.32,17.23-8.41,25.98-10.15
		c12.61-2.49,25.26-7,38.55-5.24c2.7,0.02,5.39,0.05,8.09,0.07C277.93,100.97,279.01,108.16,284.45,109.19z"/>
	<path class="st21" d="M92.98,100.45c-1.32,3.85-4.3,6.15-7.63,8.11c-9.59-4.81-19.49-9.13-24.34-19.86
		c-2.98-6.6-2.7-13.39,1.37-17.31c3.55-3.42,7.41-4.13,12.37-2.81c7.59,2.02,10.43-0.85,9.17-8.43c-0.39-2.37-1.7-4.59-2.06-6.96
		c-1.34-8.78,4.94-14.17,13.29-11.1c4.15,1.53,7.8,4.38,11.82,6.34c7.77,3.79,10.42,2.46,12.14-6.13c1.08-5.42,0.1-11.08,2.08-16.46
		c0.98-2.66,1.34-5.53,4.7-6.09c3.63-0.6,4.62,2.27,5.83,4.78c0.91,1.87,1.68,3.86,2.91,5.51c4.32,5.81,10.58,5.19,13.97-1.18
		c2.59-4.88,1.51-10.2,2.14-15.32c1.14-9.37,9.16-15.04,17.76-12.43c4.49,1.36,8.46,3.52,7.88,9.34c-0.41,4.09,1.2,7.41,3.84,10.4
		c4.88,5.52,6.17,5.65,11.67,0.79c1.8-1.59,3.21-3.59,5.57-4.6c4.84-2.07,8.69-2.42,10.07,4.12c1.3,6.14,4.33,9.83,11.55,8.15
		c3.57-0.83,5.57,1.98,7.12,4.91c2.44,4.63,5.56,4.37,9.25,1.32c4.84-4.01,10.16-7.11,16.41-8.58c10.12-2.37,18.88,1.15,24,9.76
		c2.94,4.94,3.39,9.68-0.05,14.58c-1.98,2.81-3.82,5.59-4.09,9.35c-0.77,10.32,2.03,13,12.41,11.24
		c10.63-1.81,19.86,9.7,15.93,20.09c-2.92,7.71-8.47,13.23-15.61,17.21c-5.44-1.03-6.52-8.22-12.32-8.74
		c-0.26-1.69-0.07-3.62-0.85-5.02C253,62.07,212.91,57.75,188.23,84.58c-6.22-5.16-11.53-11.18-16.62-17.43
		c0.57-1.22,0.91-2.62,1.74-3.61c2.11-2.49,6.53-3.96,5.87-7.58c-0.58-3.12-3.31-5.9-5.31-8.67c-2.24-3.12-4.83-3.39-7.71-0.57
		c-4.4,4.33-8.91,8.54-13.38,12.81c-18.71-3.23-34.21,2.41-47.34,16.12C98.65,82.8,96.16,91.7,92.98,100.45z"/>
	<path class="st22" d="M264.04,100.38c-13.29-1.76-25.95,2.74-38.55,5.24c-8.75,1.73-18.1,4.83-25.98,10.15
		c-2.15,1.45-4.47,1.69-6.91,1.68c0.14-8.18,0.58-16.39-1.59-24.42c1.72-1.69,3.44-3.38,5.16-5.06
		C220.3,64.25,256.28,77.34,264.04,100.38z"/>
	<path class="st23" d="M191,93.03c2.17,8.03,1.72,16.24,1.59,24.42c-7.13,7.17-7.39,7.55-15.5,2.08
		c-6.92-4.67-15.66-5.21-22.11-10.64c1.5-15.52,4.45-30.47,16.63-41.74c5.08,6.24,10.4,12.26,16.62,17.43
		C188.57,87.59,187.49,91.06,191,93.03z"/>
	<path class="st24" d="M92.98,100.45c3.19-8.75,5.67-17.65,12.51-24.79c13.13-13.71,28.63-19.35,47.34-16.12
		c-0.87,2.2-1.4,4.62-2.66,6.58c-7.57,11.78-10.65,24.9-11.97,38.6c-8.86-3.04-8.86-3.04-7.8-12.32c0.68-5.87-2.7-9.38-10.13-10.38
		c-5.61-0.76-5.63,3.81-6.68,7.26c-1.07,3.53,1.49,8.59-2.19,10.54c-3.02,1.6-7.4,0.71-11.18,0.81
		C97.81,100.68,95.39,100.52,92.98,100.45z"/>
	<path class="st25" d="M138.2,104.71c1.31-13.69,4.4-26.82,11.97-38.6c1.26-1.95,1.79-4.37,2.66-6.58
		c4.46-4.26,8.98-8.48,13.38-12.81c2.87-2.83,5.46-2.55,7.71,0.57c2,2.77,4.73,5.55,5.31,8.67c0.67,3.62-3.76,5.08-5.87,7.58
		c-0.83,0.99-1.18,2.39-1.74,3.61c-12.18,11.27-15.12,26.22-16.63,41.74C148.83,109.75,144.59,102.94,138.2,104.71z"/>
	<path class="st26" d="M191,93.03c-3.51-1.97-2.43-5.44-2.77-8.45c24.68-26.83,64.77-22.51,83.05,10.85
		c0.77,1.41,0.59,3.34,0.85,5.02c-2.7-0.02-5.39-0.05-8.09-0.07c-7.76-23.05-43.75-36.13-67.88-12.42
		C194.44,89.65,192.72,91.34,191,93.03z"/>
</g>
</svg>
