<?xml version="1.0" encoding="utf-8"?>
<!-- Generator: Adobe Illustrator 25.4.1, SVG Export Plug-In . SVG Version: 6.00 Build 0)  -->
<svg version="1.1" id="Layer_1" xmlns="http://www.w3.org/2000/svg" xmlns:xlink="http://www.w3.org/1999/xlink" x="0px" y="0px"
	 viewBox="0 0 360 360" style="enable-background:new 0 0 360 360;" xml:space="preserve">
<style type="text/css">
	.st0{fill:#FEB201;}
	.st1{fill:#995204;}
	.st2{fill:#00BBD4;}
	.st3{fill:#689E39;}
	.st4{fill:#016B6B;}
	.st5{fill:#8BC24A;}
	.st6{fill:#5D4038;}
	.st7{fill:#FDD502;}
	.st8{fill:#2296F2;}
	.st9{fill:#3D2622;}
	.st10{fill:#F44337;}
	.st11{fill:#C52827;}
	.st12{fill:#FDC108;}
	.st13{fill:#FDC109;}
	.st14{fill:#FEED57;}
	.st15{fill:#FDED58;}
	.st16{fill:#FDC008;}
	.st17{fill:#FDED57;}
	.st18{fill:#FDC009;}
	.st19{fill:#F7E69F;}
	.st20{fill:#FEC008;}
	.st21{fill:#8BC24B;}
	.st22{fill:#DBE675;}
	.st23{fill:#FB3E03;}
	.st24{fill:#FA3E03;}
	.st25{fill:#FBE93B;}
	.st26{fill:#317E31;}
	.st27{fill:#FDB203;}
	.st28{fill:#2396F0;}
	.st29{fill:#3F51B4;}
	.st30{fill:#FDDF7E;}
	.st31{fill:#309BEE;}
	.st32{fill:#2B97EA;}
	.st33{fill:#2C97EA;}
	.st34{fill:#FBDD7B;}
	.st35{fill:#FBDC79;}
	.st36{fill:#FCDD7D;}
	.st37{fill:#FCDD7C;}
	.st38{fill:#FBDE7F;}
	.st39{fill:#FCDF80;}
	.st40{fill:#FFFFFF;}
	.st41{fill:#C52828;}
	.st42{fill:#EE9899;}
	.st43{fill:#9D9D24;}
	.st44{fill:#FED44F;}
	.st45{fill:#8C6E63;}
	.st46{fill:#8D6E63;}
	.st47{fill:#BFC933;}
	.st48{fill:#FCB306;}
	.st49{fill:#FAB409;}
	.st50{fill:#D50000;}
	.st51{fill:#FDE47F;}
	.st52{fill:#FE9F00;}
	.st53{fill:#90C9F7;}
	.st54{fill:#FDC928;}
	.st55{fill:#FCC305;}
	.st56{fill:#FC897E;}
	.st57{fill:#FCC405;}
	.st58{fill:#FBC507;}
	.st59{fill:#FBC60F;}
	.st60{fill:#FCD44F;}
	.st61{fill:#FE9701;}
	.st62{fill:#FD3D02;}
	.st63{fill:#8C6E62;}
	.st64{fill:#FE3D00;}
	.st65{fill:#3F2822;}
	.st66{fill:#402821;}
	.st67{fill:#699F38;}
	.st68{fill:#699F39;}
	.st69{fill:#FAD251;}
	.st70{fill:#F9D250;}
	.st71{fill:#EE6C02;}
	.st72{fill:#FDCB7F;}
	.st73{fill:#EE6C01;}
	.st74{fill:#FECB7F;}
	.st75{fill:#FCCB7F;}
	.st76{fill:#BE360C;}
	.st77{fill:#ED6C02;}
	.st78{fill:#8FCAF8;}
	.st79{fill:#BADDFA;}
	.st80{fill:#9B8178;}
	.st81{fill:#FCCC81;}
	.st82{fill:#31B954;}
	.st83{fill:#31BA54;}
	.st84{fill:#31BA55;}
	.st85{fill:#30BA55;}
	.st86{fill:#2EBB52;}
	.st87{fill:#30BA54;}
	.st88{fill:#30BA53;}
	.st89{fill:#2FBB52;}
	.st90{fill:#32B953;}
</style>
<g>
	<path class="st6" d="M341.04,179.62c3.92,0.14,7.87,0.62,11.75,0.32c5.51-0.42,7.79,1.09,7.08,7.17
		c-7.54,64.09-44.28,115.18-109.38,134.88c-1.1,0.33-2.34,0.21-3.51,0.29c-44.62,0-89.24,0-133.86,0
		c-40.52-10.15-71.09-33.47-91.99-69.54C9.97,233.49,3.91,212.52,0.71,190.64c-1.52-10.43-1.44-10.42,8.94-10.63
		c3.13-0.06,6.26-0.26,9.4-0.39c2.76,0.13,5.51,0.38,8.27,0.38c73.01,0.02,146.02,0.04,219.03-0.01
		C277.91,179.96,309.48,179.75,341.04,179.62z"/>
	<path class="st7" d="M341.04,179.62c-31.56,0.13-63.13,0.34-94.69,0.37c-73.01,0.06-146.02,0.03-219.03,0.01
		c-2.76,0-5.51-0.25-8.27-0.38c-1.41-16.96,7.07-28.07,21.52-35.11c4.7-2.29,6.86-4.5,7.14-10.19
		c0.83-16.89,21.92-38.15,45.38-27.42c3.2,1.46,5.95,2.43,8.78,0.56c10.13-6.71,19.5-2.96,28.56,2.09
		c11.36,6.34,13.63,6.34,21.57-2.45c15.04-16.66,40.7-17.04,56.23,0.28c6.68,7.45,24.31,9.13,32.96,3.89
		c4.59-2.78,8.45-8.61,15.27-5.23c-0.36,1.53-0.21,3.62-1.17,4.49c-8.96,8.16-9.29,15.4-0.94,25.15c6.64,7.75,11.06,9.15,17.34,0.42
		c4.58-6.36,9.23-12.66,14.88-18.15c2.05,0.89,2.24,2.95,3.07,4.67c2.64,5.46,5.37,9.66,12.6,11.55
		c6.74,1.76,14.01,5.92,16.62,14.47c0.92,3.01,4.14,5.56,7.4,7.12C336.27,160.55,340.97,168.65,341.04,179.62z"/>
	<path class="st8" d="M286.55,117.93c-5.64,5.49-10.3,11.79-14.88,18.15c-6.28,8.73-10.7,7.33-17.34-0.42
		c-8.35-9.75-8.02-16.99,0.94-25.15c0.96-0.87,0.81-2.96,1.17-4.49c10.58-11.1,17.74-24.68,26.54-37.07
		c11.8-16.6,22.85-33.72,34.25-50.6c3.36-4.98,7.26-10.86,13.96-8.36c7.96,2.96,15.8,7.41,19.07,16.2
		c1.75,4.71-1.83,8.26-4.36,11.65c-11.01,14.74-22.46,29.15-33.21,44.07C304.01,93.94,293.74,104.82,286.55,117.93z"/>
	<path class="st9" d="M113.13,322.29c44.62,0,89.24,0,133.86,0c-0.21,7.46-0.69,14.93-0.52,22.39c0.11,4.74-1.74,5.94-6.19,5.93
		c-40.14-0.13-80.28-0.13-120.43,0c-4.45,0.01-6.3-1.18-6.19-5.93C113.83,337.22,113.34,329.75,113.13,322.29z"/>
</g>
</svg>
