<?xml version="1.0" encoding="utf-8"?>
<!-- Generator: Adobe Illustrator 25.4.1, SVG Export Plug-In . SVG Version: 6.00 Build 0)  -->
<svg version="1.1" id="Layer_1" xmlns="http://www.w3.org/2000/svg" xmlns:xlink="http://www.w3.org/1999/xlink" x="0px" y="0px"
	 viewBox="0 0 360 360" style="enable-background:new 0 0 360 360;" xml:space="preserve">
<style type="text/css">
	.st0{fill:#FEB201;}
	.st1{fill:#995204;}
	.st2{fill:#00BBD4;}
	.st3{fill:#689E39;}
	.st4{fill:#016B6B;}
	.st5{fill:#8BC24A;}
	.st6{fill:#5D4038;}
	.st7{fill:#FDD502;}
	.st8{fill:#2296F2;}
	.st9{fill:#3D2622;}
	.st10{fill:#F44337;}
	.st11{fill:#C52827;}
	.st12{fill:#FDC108;}
	.st13{fill:#FDC109;}
	.st14{fill:#FEED57;}
	.st15{fill:#FDED58;}
	.st16{fill:#FDC008;}
	.st17{fill:#FDED57;}
	.st18{fill:#FDC009;}
	.st19{fill:#F7E69F;}
	.st20{fill:#FEC008;}
	.st21{fill:#8BC24B;}
	.st22{fill:#DBE675;}
	.st23{fill:#FB3E03;}
	.st24{fill:#FA3E03;}
	.st25{fill:#FBE93B;}
	.st26{fill:#317E31;}
	.st27{fill:#FDB203;}
	.st28{fill:#2396F0;}
	.st29{fill:#3F51B4;}
	.st30{fill:#FDDF7E;}
	.st31{fill:#309BEE;}
	.st32{fill:#2B97EA;}
	.st33{fill:#2C97EA;}
	.st34{fill:#FBDD7B;}
	.st35{fill:#FBDC79;}
	.st36{fill:#FCDD7D;}
	.st37{fill:#FCDD7C;}
	.st38{fill:#FBDE7F;}
	.st39{fill:#FCDF80;}
	.st40{fill:#FFFFFF;}
	.st41{fill:#C52828;}
	.st42{fill:#EE9899;}
	.st43{fill:#9D9D24;}
	.st44{fill:#FED44F;}
	.st45{fill:#8C6E63;}
	.st46{fill:#8D6E63;}
	.st47{fill:#BFC933;}
	.st48{fill:#FCB306;}
	.st49{fill:#FAB409;}
	.st50{fill:#D50000;}
	.st51{fill:#FDE47F;}
	.st52{fill:#FE9F00;}
	.st53{fill:#90C9F7;}
	.st54{fill:#FDC928;}
	.st55{fill:#FCC305;}
	.st56{fill:#FC897E;}
	.st57{fill:#FCC405;}
	.st58{fill:#FBC507;}
	.st59{fill:#FBC60F;}
	.st60{fill:#FCD44F;}
	.st61{fill:#FE9701;}
	.st62{fill:#FD3D02;}
	.st63{fill:#8C6E62;}
	.st64{fill:#FE3D00;}
	.st65{fill:#3F2822;}
	.st66{fill:#402821;}
	.st67{fill:#699F38;}
	.st68{fill:#699F39;}
	.st69{fill:#FAD251;}
	.st70{fill:#F9D250;}
	.st71{fill:#EE6C02;}
	.st72{fill:#FDCB7F;}
	.st73{fill:#EE6C01;}
	.st74{fill:#FECB7F;}
	.st75{fill:#FCCB7F;}
	.st76{fill:#BE360C;}
	.st77{fill:#ED6C02;}
	.st78{fill:#8FCAF8;}
	.st79{fill:#BADDFA;}
	.st80{fill:#9B8178;}
	.st81{fill:#FCCC81;}
	.st82{fill:#31B954;}
	.st83{fill:#31BA54;}
	.st84{fill:#31BA55;}
	.st85{fill:#30BA55;}
	.st86{fill:#2EBB52;}
	.st87{fill:#30BA54;}
	.st88{fill:#30BA53;}
	.st89{fill:#2FBB52;}
	.st90{fill:#32B953;}
</style>
<g>
	<path class="st0" d="M310.02,100.28c17.34,5.77,28.11,18.5,36.57,33.94c10.61,19.36,15.95,40.15,12.21,61.75
		c-3.62,20.96-10.55,41.19-21.52,59.89c-19.16,32.65-46.36,55.22-81.61,68.84c-35.5,13.72-72.52,18.48-109.63,13.57
		c-60.95-8.08-108.45-38.39-134.2-95.88c-12.11-27.04-14.91-56.24-8.49-86.17c5.15-24.04,12.86-46.67,27.11-66.71
		c20.17-28.36,46.51-48.42,79.74-59.81c26-8.91,52.56-11.25,79.51-9.09c27.14,2.17,53.69,7.18,76.14,24.57
		c10.07,7.8,17.04,18.06,23.92,28.46c0.45,2,0.64,4.11,1.39,5.99c9.85,24.62,12,49.45,4.19,75.24c-14.98,49.53-50,72.91-97.22,76.88
		c-26.3,2.21-52.04-2.92-76.67-12.23c-24.5-9.26-44.47-24.47-54.58-49.47c-15.4-38.09-6.83-70.31,26.16-89.65
		c40.78-23.92,84.94-25.82,129.84-14.43c10.62,2.69,20.93,7.97,28.57,16.92c12.78,14.97,10.88,31.29-5.23,42.68
		c-21.49,15.19-56.6,16.27-79.05,2.43c-14.9-9.19-18.83-18.46-15.51-36.55c-18.37-2.8-39.19,11.62-41.41,28.84
		c-2.71,20.99,3.75,38.55,20.58,51.64c27.98,21.77,60.18,26.15,94.13,21.35c14.88-2.1,28.43-7.64,40.39-17.58
		c27.49-22.82,29.71-83.73-10.78-110.84c-20.54-13.76-43-22.33-67.01-24.13c-49.91-3.75-96.75,6.11-135.68,40.1
		c-19.83,17.32-31.41,39.33-31.42,66.35c-0.01,26.31,11.51,47.86,28.31,67.12c22.31,25.58,51.2,40.24,83.11,49.79
		c22.63,6.77,46.07,8.5,68.92,4.27c39.58-7.33,72.81-26.97,97.9-58.94c13.33-16.99,21.5-35.87,21.28-58.31
		C319.79,133.34,315.73,116.74,310.02,100.28z"/>
	<path class="st1" d="M310.02,100.28c5.71,16.47,9.77,33.06,9.95,50.82c0.22,22.44-7.94,41.32-21.28,58.31
		c-25.1,31.97-58.33,51.61-97.9,58.94c-22.85,4.23-46.29,2.51-68.92-4.27c-31.91-9.55-60.8-24.21-83.11-49.79
		c-16.8-19.26-28.32-40.81-28.31-67.12c0.02-27.02,11.59-49.03,31.42-66.35c38.93-33.99,85.77-43.85,135.68-40.1
		c24,1.8,46.47,10.38,67.01,24.13c40.49,27.12,38.27,88.03,10.78,110.84c-11.96,9.93-25.51,15.47-40.39,17.58
		c-33.96,4.8-66.16,0.42-94.13-21.35c-16.83-13.09-23.3-30.65-20.58-51.64c2.23-17.22,23.05-31.64,41.41-28.84
		c-3.32,18.09,0.61,27.36,15.51,36.55c22.45,13.84,57.56,12.77,79.05-2.43c16.11-11.39,18.02-27.71,5.23-42.68
		c-7.64-8.95-17.95-14.22-28.57-16.92c-44.9-11.39-89.05-9.49-129.84,14.43c-32.98,19.34-41.56,51.56-26.16,89.65
		c10.11,25,30.08,40.21,54.58,49.47c24.62,9.31,50.36,14.44,76.67,12.23c47.23-3.97,82.24-27.35,97.22-76.88
		c7.8-25.79,5.66-50.62-4.19-75.24c-0.75-1.88-0.94-3.99-1.39-5.99C298.99,80.63,303.71,91.06,310.02,100.28z"/>
</g>
</svg>
