<?xml version="1.0" encoding="utf-8"?>
<!-- Generator: Adobe Illustrator 25.4.1, SVG Export Plug-In . SVG Version: 6.00 Build 0)  -->
<svg version="1.1" id="Layer_1" xmlns="http://www.w3.org/2000/svg" xmlns:xlink="http://www.w3.org/1999/xlink" x="0px" y="0px"
	 viewBox="0 0 360 360" style="enable-background:new 0 0 360 360;" xml:space="preserve">
<style type="text/css">
	.st0{fill:#FEB201;}
	.st1{fill:#995204;}
	.st2{fill:#00BBD4;}
	.st3{fill:#689E39;}
	.st4{fill:#016B6B;}
	.st5{fill:#8BC24A;}
	.st6{fill:#5D4038;}
	.st7{fill:#FDD502;}
	.st8{fill:#2296F2;}
	.st9{fill:#3D2622;}
	.st10{fill:#F44337;}
	.st11{fill:#C52827;}
	.st12{fill:#FDC108;}
	.st13{fill:#FDC109;}
	.st14{fill:#FEED57;}
	.st15{fill:#FDED58;}
	.st16{fill:#FDC008;}
	.st17{fill:#FDED57;}
	.st18{fill:#FDC009;}
	.st19{fill:#F7E69F;}
	.st20{fill:#FEC008;}
	.st21{fill:#8BC24B;}
	.st22{fill:#DBE675;}
	.st23{fill:#FB3E03;}
	.st24{fill:#FA3E03;}
	.st25{fill:#FBE93B;}
	.st26{fill:#317E31;}
	.st27{fill:#FDB203;}
	.st28{fill:#2396F0;}
	.st29{fill:#3F51B4;}
	.st30{fill:#FDDF7E;}
	.st31{fill:#309BEE;}
	.st32{fill:#2B97EA;}
	.st33{fill:#2C97EA;}
	.st34{fill:#FBDD7B;}
	.st35{fill:#FBDC79;}
	.st36{fill:#FCDD7D;}
	.st37{fill:#FCDD7C;}
	.st38{fill:#FBDE7F;}
	.st39{fill:#FCDF80;}
	.st40{fill:#FFFFFF;}
	.st41{fill:#C52828;}
	.st42{fill:#EE9899;}
	.st43{fill:#9D9D24;}
	.st44{fill:#FED44F;}
	.st45{fill:#8C6E63;}
	.st46{fill:#8D6E63;}
	.st47{fill:#BFC933;}
	.st48{fill:#FCB306;}
	.st49{fill:#FAB409;}
	.st50{fill:#D50000;}
	.st51{fill:#FDE47F;}
	.st52{fill:#FE9F00;}
	.st53{fill:#90C9F7;}
	.st54{fill:#FDC928;}
	.st55{fill:#FCC305;}
	.st56{fill:#FC897E;}
	.st57{fill:#FCC405;}
	.st58{fill:#FBC507;}
	.st59{fill:#FBC60F;}
	.st60{fill:#FCD44F;}
	.st61{fill:#FE9701;}
	.st62{fill:#FD3D02;}
	.st63{fill:#8C6E62;}
	.st64{fill:#FE3D00;}
	.st65{fill:#3F2822;}
	.st66{fill:#402821;}
	.st67{fill:#699F38;}
	.st68{fill:#699F39;}
	.st69{fill:#FAD251;}
	.st70{fill:#F9D250;}
	.st71{fill:#EE6C02;}
	.st72{fill:#FDCB7F;}
	.st73{fill:#EE6C01;}
	.st74{fill:#FECB7F;}
	.st75{fill:#FCCB7F;}
	.st76{fill:#BE360C;}
	.st77{fill:#ED6C02;}
	.st78{fill:#8FCAF8;}
	.st79{fill:#BADDFA;}
	.st80{fill:#9B8178;}
	.st81{fill:#FCCC81;}
	.st82{fill:#31B954;}
	.st83{fill:#31BA54;}
	.st84{fill:#31BA55;}
	.st85{fill:#30BA55;}
	.st86{fill:#2EBB52;}
	.st87{fill:#30BA54;}
	.st88{fill:#30BA53;}
	.st89{fill:#2FBB52;}
	.st90{fill:#32B953;}
</style>
<g>
	<circle class="st40" cx="179.95" cy="184.89" r="143.21"/>
	<path class="st78" d="M180.2,360C81.22,360.01-0.48,279.78,0,179.09C0.47,81.15,79.99-0.44,180.88,0
		C278.83,0.42,360.41,79.96,360,180.83C359.6,279.37,279.69,359.8,180.2,360z M333.03,179.13c-0.89-84.69-67.7-149.24-146.64-152.01
		C95.39,23.94,28.91,95.67,26.99,175.48c-2.15,89.21,68.92,155.56,150.23,157.64C263.29,335.31,334.36,262.48,333.03,179.13z"/>
	<path class="st79" d="M333.03,179.13c1.32,83.35-69.74,156.18-155.81,153.99c-81.31-2.07-152.37-68.43-150.23-157.64
		c1.92-79.81,68.4-151.54,159.4-148.36C265.33,29.89,332.14,94.44,333.03,179.13z M315.02,180.79
		c0.71-74.48-60.19-134.03-131.07-135.87c-78.06-2.03-137.79,61.56-139.06,132.67c-1.35,76.23,62.52,136.79,132.86,137.64
		C253.86,316.14,315.8,252.38,315.02,180.79z"/>
	<path class="st44" d="M301.33,176.33c-2.62,26.02-9.09,48.74-22.22,69.41c-8.61,13.54-19.63,24.78-31.33,35.56
		c-10.32,9.51-23.35,14.47-36.21,14.77c-21.6,0.5-38.42-10.49-40.33-35.08c-1.99-25.6,10.03-45.63,27.48-63.02
		c10-9.96,20.71-18.46,34.63-23c10.59-3.45,18.38-12.15,26.74-19.34c3.95-3.4,7.71-6.37,12.71-8.38
		c10.24-4.11,19.62-1.82,23.46,8.08C299.06,162.55,299.98,170.49,301.33,176.33z"/>
	<path class="st80" d="M99.18,215.95c-6.01-10.86-14.61-19.79-22-29.62c-16.91-22.49-18.71-43.32-5.78-65.49
		C88.21,92,126.7,91.41,144.07,119.9c12.22,20.04,12.02,40.15-0.66,60.1c-8.02,12.63-19.18,22.92-26.58,35.99
		C110.95,215.98,105.07,215.96,99.18,215.95z"/>
	<path class="st81" d="M99.18,215.95c5.89,0.01,11.77,0.03,17.66,0.04c0.05,5.98,0.34,11.97,0.1,17.94
		c-0.28,6.9-0.1,13.26,6.29,17.95c4.31,3.17,3.89,8.52,1.68,12.15c-2.5,4.11-7.4,5.03-11.76,1.82c-4.03-2.96-7.59-1.98-11.25,0.45
		c-3.83,2.54-7.46,1.17-10.22-1.46c-3.06-2.91-2.96-8.64-0.88-10.32c12.55-10.19,6.87-23.97,8.23-36.34
		C99.11,217.45,99.13,216.7,99.18,215.95z"/>
	<path class="st82" d="M170.99,117.49c-0.31,4.78-5.15,9.21-9.76,8.41c-4.76-0.83-8.07-3.58-8.18-8.86
		c-0.1-4.89,4.39-9.21,9.18-9.04C167.15,108.17,171.3,112.67,170.99,117.49z"/>
	<path class="st83" d="M252.22,98.96c-4.82,0.09-9.34-4.26-9.15-9.07c0.2-5.19,3.32-8.1,8.2-8.82c4.8-0.71,9.48,3.58,9.74,8.44
		C261.26,94.32,257.03,98.87,252.22,98.96z"/>
	<path class="st84" d="M224.97,153.52c-0.31,4.77-5.11,8.93-9.76,8.46c-4.67-0.47-9.04-5.56-8.06-10.03
		c1.02-4.65,3.79-7.97,9.09-7.92C221.06,144.08,225.28,148.76,224.97,153.52z"/>
	<path class="st85" d="M233.99,116.95c-4.91-0.08-9.18-4.5-8.96-9.29c0.22-4.97,4.76-9.28,9.55-8.61c4.86,0.69,8.12,3.44,8.39,8.67
		C243.21,112.51,238.69,117.03,233.99,116.95z"/>
	<path class="st86" d="M215.99,98.37c0.3,4.73-3.95,9.43-8.67,9.58c-4.7,0.16-9.42-4.28-9.27-8.94c0.17-5.18,3.4-8.05,8.1-8.95
		C210.75,89.2,215.69,93.66,215.99,98.37z"/>
	<path class="st87" d="M188.99,99.49c-0.32,4.77-5.13,8.93-9.8,8.47c-4.74-0.46-9.07-5.49-8.07-10.04c1.02-4.64,3.82-7.96,9.11-7.92
		C185.03,90.05,189.31,94.78,188.99,99.49z"/>
	<path class="st87" d="M161.98,90.28c-0.19,4.8-4.88,9.26-9.57,8.61c-4.86-0.67-8.1-3.43-8.35-8.67c-0.23-4.8,4.21-9.27,8.97-9.24
		C157.79,81.02,162.16,85.56,161.98,90.28z"/>
	<path class="st87" d="M189.51,144.02c4.78,0.32,9.25,5.19,8.38,9.74c-0.89,4.67-3.55,8.08-8.85,8.19c-4.79,0.1-9.16-4.46-9.01-9.2
		C180.19,147.82,184.66,143.69,189.51,144.02z"/>
	<path class="st85" d="M242.77,143.96c-4.91-0.15-9.34-4.74-8.69-9.48c0.67-4.85,3.5-8.08,8.64-8.45c4.76-0.35,9.33,4.19,9.29,8.9
		C251.98,139.81,247.57,144.11,242.77,143.96z"/>
	<path class="st83" d="M198.3,62.98c4.94,0.21,9.31,4.79,8.63,9.54c-0.7,4.84-3.45,8.12-8.67,8.4c-4.77,0.25-9.31-4.27-9.25-8.98
		C189.07,67.05,193.51,62.78,198.3,62.98z"/>
	<path class="st83" d="M179.98,72.49c-0.32,4.81-5.09,8.94-9.79,8.47c-4.73-0.48-9.06-5.52-8.07-10.04
		c1.02-4.66,3.81-7.97,9.11-7.91C176.11,63.06,180.3,67.7,179.98,72.49z"/>
	<path class="st87" d="M224.98,125.38c0.32,4.87-3.82,9.45-8.65,9.58c-4.81,0.13-9.4-4.2-9.29-8.95c0.12-5.24,3.31-8.11,8.1-8.94
		C219.89,116.24,224.66,120.54,224.98,125.38z"/>
	<path class="st88" d="M197.99,126.07c-0.08,4.77-4.67,9.13-9.36,8.89c-4.84-0.25-9.21-4.93-8.56-9.62c0.68-4.91,3.6-8.01,8.74-8.3
		C193.49,116.77,198.07,121.43,197.99,126.07z"/>
	<path class="st89" d="M270,116.83c0.04,4.66-4.55,9.25-9.12,9.13c-4.83-0.13-9.32-4.71-8.79-9.39c0.56-4.93,3.45-8.07,8.51-8.53
		C265.31,107.61,269.96,112.13,270,116.83z"/>
	<path class="st90" d="M224.99,89.95c-4.83-0.05-9.36-4.58-8.9-9.25c0.49-4.96,3.36-8.11,8.4-8.65c4.71-0.5,9.39,3.97,9.51,8.68
		C234.11,85.41,229.62,90,224.99,89.95z"/>
</g>
</svg>
