<?xml version="1.0" encoding="utf-8"?>
<!-- Generator: Adobe Illustrator 25.4.1, SVG Export Plug-In . SVG Version: 6.00 Build 0)  -->
<svg version="1.1" id="Layer_1" xmlns="http://www.w3.org/2000/svg" xmlns:xlink="http://www.w3.org/1999/xlink" x="0px" y="0px"
	 viewBox="0 0 360 360" style="enable-background:new 0 0 360 360;" xml:space="preserve">
<style type="text/css">
	.st0{fill:#FEB201;}
	.st1{fill:#995204;}
	.st2{fill:#00BBD4;}
	.st3{fill:#689E39;}
	.st4{fill:#016B6B;}
	.st5{fill:#8BC24A;}
	.st6{fill:#5D4038;}
	.st7{fill:#FDD502;}
	.st8{fill:#2296F2;}
	.st9{fill:#3D2622;}
	.st10{fill:#F44337;}
	.st11{fill:#C52827;}
	.st12{fill:#FDC108;}
	.st13{fill:#FDC109;}
	.st14{fill:#FEED57;}
	.st15{fill:#FDED58;}
	.st16{fill:#FDC008;}
	.st17{fill:#FDED57;}
	.st18{fill:#FDC009;}
	.st19{fill:#F7E69F;}
	.st20{fill:#FEC008;}
	.st21{fill:#8BC24B;}
	.st22{fill:#DBE675;}
	.st23{fill:#FB3E03;}
	.st24{fill:#FA3E03;}
	.st25{fill:#FBE93B;}
	.st26{fill:#317E31;}
	.st27{fill:#FDB203;}
	.st28{fill:#2396F0;}
	.st29{fill:#3F51B4;}
	.st30{fill:#FDDF7E;}
	.st31{fill:#309BEE;}
	.st32{fill:#2B97EA;}
	.st33{fill:#2C97EA;}
	.st34{fill:#FBDD7B;}
	.st35{fill:#FBDC79;}
	.st36{fill:#FCDD7D;}
	.st37{fill:#FCDD7C;}
	.st38{fill:#FBDE7F;}
	.st39{fill:#FCDF80;}
	.st40{fill:#FFFFFF;}
	.st41{fill:#C52828;}
	.st42{fill:#EE9899;}
	.st43{fill:#9D9D24;}
	.st44{fill:#FED44F;}
	.st45{fill:#8C6E63;}
	.st46{fill:#8D6E63;}
	.st47{fill:#BFC933;}
	.st48{fill:#FCB306;}
	.st49{fill:#FAB409;}
	.st50{fill:#D50000;}
	.st51{fill:#FDE47F;}
	.st52{fill:#FE9F00;}
	.st53{fill:#90C9F7;}
	.st54{fill:#FDC928;}
	.st55{fill:#FCC305;}
	.st56{fill:#FC897E;}
	.st57{fill:#FCC405;}
	.st58{fill:#FBC507;}
	.st59{fill:#FBC60F;}
	.st60{fill:#FCD44F;}
	.st61{fill:#FE9701;}
	.st62{fill:#FD3D02;}
	.st63{fill:#8C6E62;}
	.st64{fill:#FE3D00;}
	.st65{fill:#3F2822;}
	.st66{fill:#402821;}
	.st67{fill:#699F38;}
	.st68{fill:#699F39;}
	.st69{fill:#FAD251;}
	.st70{fill:#F9D250;}
	.st71{fill:#EE6C02;}
	.st72{fill:#FDCB7F;}
	.st73{fill:#EE6C01;}
	.st74{fill:#FECB7F;}
	.st75{fill:#FCCB7F;}
	.st76{fill:#BE360C;}
	.st77{fill:#ED6C02;}
	.st78{fill:#8FCAF8;}
	.st79{fill:#BADDFA;}
	.st80{fill:#9B8178;}
	.st81{fill:#FCCC81;}
	.st82{fill:#31B954;}
	.st83{fill:#31BA54;}
	.st84{fill:#31BA55;}
	.st85{fill:#30BA55;}
	.st86{fill:#2EBB52;}
	.st87{fill:#30BA54;}
	.st88{fill:#30BA53;}
	.st89{fill:#2FBB52;}
	.st90{fill:#32B953;}
</style>
<g>
	<path class="st10" d="M327.2,151.74c-5.15,28.16-10.11,56.35-15.51,84.46c-7.22,37.62-14.79,75.16-22.21,112.74
		c-2.2,11.17-2.15,10.81-13.27,9.53c-39.61-4.6-79.28-9.36-119.25-6.91c-25.26,1.55-50.57,3.29-75.57,7.57
		c-6.45,1.1-9.16,0.06-10.45-6.9c-6.76-36.56-14.15-73.01-21.11-109.54c-5.21-27.37-10.1-54.8-15.14-82.2
		c1.57-6.38,6.17-6.66,11.75-6.82c5.76-0.17,7.37,2.76,9.28,7.23c7.38,17.27,17.83,32.37,31.64,45.33
		c34.86,32.69,76.18,44.38,122.12,34.09c41.19-9.23,72.03-34.2,90.93-72.48c4.47-9.06,8.19-17.28,20.56-14.03
		C323.27,154.42,325.21,152.71,327.2,151.74z"/>
	<path class="st11" d="M327.2,151.74c-1.99,0.96-3.92,2.67-6.22,2.07c-12.38-3.26-16.09,4.97-20.56,14.03
		c-18.89,38.29-49.74,63.25-90.93,72.48c-45.94,10.3-87.26-1.4-122.12-34.09c-13.82-12.95-24.27-28.06-31.64-45.33
		c-1.91-4.48-3.52-7.4-9.28-7.23c-5.58,0.16-10.18,0.45-11.75,6.82c-1.98-9.34-3.62-18.77-6.09-27.97
		c-1.38-5.15,1.15-5.65,4.86-5.87c11.41,0,22.81-0.01,34.22-0.01c4.11-0.03,6.54,1.26,7.54,5.96c1.38,6.48,3.43,12.95,6.18,18.97
		c9.59,21.02,23.03,38.76,44.39,49.25c3.01,3.6,7.27,4.99,11.49,6.43c11.96,5.93,24.57,9.08,37.95,8.96
		c0.75,0.02,1.49,0.04,2.24,0.06c12.54,1.15,24.58-0.85,36.12-5.87c10.75-2.07,19.89-7.39,28.36-14.06
		c20.89-14.71,34.96-34.35,41.17-59.1c1.93-7.69,4.86-11.82,13.09-10.62c11.81,0.1,23.62,0.2,35.43,0.3
		C331.55,135.45,328.46,143.43,327.2,151.74z"/>
	<path class="st12" d="M241.95,196.35c-8.47,6.68-17.61,11.99-28.36,14.06c3.65-15.97,0.88-32.39,3.73-48.53
		c1.97-11.18,3.83-22.63,2.86-34.22c-0.34-4.04-0.2-8.22,0.44-12.22c2.21-13.87,4.17-27.74,3.95-41.83
		c-0.14-9.01-0.15-9.01-9.16-9.4c-1.48-0.06-2.97-0.03-4.46-0.04c0.49-11.49,0.6-22.98,2.42-34.39c1.66-10.44,1.42-10.65,12.47-9.97
		c6.27,0.38,12.57,1.09,18.73,2.28c3.64,0.7,6.25,2.12,5.24,7.63c-2.87,15.7-3.19,31.69-3.14,47.65c-7.26,18.56-3.1,37.76-3.08,56.8
		c1.71-14.59,7.69-28.37,7.48-43.24c1.53-20.37,6.62-40.19,9.25-60.39c0.44-3.37,2.56-4.81,5.38-3.99
		c7.29,2.11,14.82,1.39,22.17,2.48c7.99,1.19,8.97,2.98,7.49,11.44c-2.69,15.37-5.3,30.75-7.94,46.13
		c-4.24-1.29-8.47-2.66-12.74-3.83c-2.35-0.65-4.3-0.3-5.09,2.62c-2.97,11.04-6.52,21.96-8.97,33.11
		c-2.21,10.06-5.24,19.9-7.44,29.91C249.67,164.44,242.07,179.53,241.95,196.35z"/>
	<path class="st13" d="M137.29,207.26c-4.22-1.44-8.48-2.83-11.49-6.43c-4.07-8.32-6.57-17.16-8.78-26.1
		c-2.38-9.6-5.06-19.13-7.07-28.81c-2.92-14.05-9.08-27.21-10.98-41.53c-1.61-12.13-3.35-13.36-15.32-9.88
		c-4.95,1.44-6.98,0.57-7.12-4.64c-0.08-3.13,1.05-7.09-3.9-7.91c0.23-10.16-3.39-19.7-4.64-29.6c-1.24-9.8-0.82-10.24,8.77-10.58
		c6.14-0.22,11.51-2.88,17.36-3.88c5.51-0.94,8.88-0.22,9.58,6.84c1.53,15.5,5.5,30.73,7.22,46.15c1.69,15.12,5.48,29.86,6.61,45.1
		c0.95,12.77,4.51,25.34,7.12,39.09c2.1-11.21-0.72-21.12-1.58-31.04c-0.58-6.67-1.02-13.33-1.47-20.01
		c-2.33-34.14-4.4-68.3-7.51-102.37c-0.62-6.81,1.23-8.68,6.81-9.74c7.76-1.47,15.62-0.76,23.41-1.33c4.4-0.32,4.25,2.78,4.81,5.8
		c2.37,12.84,3.73,25.77,3.83,38.84c-5.97,0.05-11.97-0.23-17.92,0.24c-8.04,0.63-9.86,3.04-7.9,10.8c1.03,4.1,0.64,8.15,1.13,12.19
		c1.77,14.79,0.65,29.92,2.79,44.46C135.15,150.95,134.89,179.18,137.29,207.26z"/>
	<path class="st14" d="M137.29,207.26c-2.4-28.08-2.14-56.31-6.26-84.35c-2.14-14.55-1.02-29.67-2.79-44.46
		c-0.48-4.04-0.09-8.09-1.13-12.19c-1.96-7.76-0.13-10.17,7.9-10.8c5.94-0.47,11.94-0.19,17.92-0.24c2.89-0.07,5.78-0.14,8.67-0.21
		c1.56,15.81,4.08,31.6,4.39,47.43c0.25,13.02,1.58,25.89,2.93,38.73c2.62,24.98,2.49,50.19,6.32,75.05
		C161.86,216.34,149.25,213.19,137.29,207.26z"/>
	<path class="st15" d="M210.96,64.17c1.49,0.01,2.97-0.02,4.46,0.04c9.01,0.38,9.02,0.39,9.16,9.4c0.22,14.09-1.74,27.96-3.95,41.83
		c-0.64,4-0.78,8.18-0.44,12.22c0.98,11.59-0.88,23.04-2.86,34.22c-2.85,16.14-0.09,32.56-3.73,48.53
		c-11.54,5.02-23.57,7.01-36.12,5.87c0.06-4.46-0.46-9.02,0.27-13.37c3.32-19.69,4.54-39.72,5.68-59.46
		c1.39-24.02,5.94-47.81,5.25-71.93c-0.18-6.45,2.05-9.99,8.89-9.61C201.49,65.94,206.52,63.29,210.96,64.17z"/>
	<path class="st16" d="M197.58,61.92c-6.84-0.38-9.08,3.16-8.89,9.61c0.69,24.12-3.86,47.91-5.25,71.93
		c-1.14,19.74-2.36,39.77-5.68,59.46c-0.73,4.35-0.21,8.91-0.27,13.37c-0.75-0.02-1.49-0.04-2.24-0.06
		c-3.83-24.87-3.7-50.07-6.32-75.05c-1.35-12.84-2.68-25.71-2.93-38.73c-0.31-15.83-2.83-31.62-4.39-47.43
		c0.09-15.3,0.38-30.61,0.16-45.91c-0.08-5.64,1.44-8.28,7.48-7.67c9.16,0.92,20.73-3.84,26.88,2.07
		c5.18,4.98,1.34,16.31,1.49,24.82C197.81,39.52,197.61,50.72,197.58,61.92z"/>
	<path class="st15" d="M241.95,196.35c0.12-16.82,7.72-31.91,11.25-47.95c2.2-10.01,5.23-19.85,7.44-29.91
		c2.45-11.15,6-22.07,8.97-33.11c0.79-2.92,2.73-3.27,5.09-2.62c4.27,1.18,8.5,2.54,12.74,3.83c5.36-1.45,8.58,3.39,13.09,4.45
		c5.26,0.16,4.69,3.02,3.64,6.85c-2.62,9.59-7.1,18.67-7.96,28.73c-8.23-1.2-11.16,2.93-13.09,10.62
		C276.91,161.99,262.84,181.64,241.95,196.35z"/>
	<path class="st17" d="M72.62,81.96c4.95,0.82,3.82,4.78,3.9,7.91c0.14,5.21,2.17,6.08,7.12,4.64c11.97-3.48,13.7-2.25,15.32,9.88
		c1.91,14.32,8.06,27.48,10.98,41.53c2.01,9.67,4.69,19.21,7.07,28.81c2.22,8.94,4.72,17.78,8.78,26.1
		c-21.36-10.5-34.8-28.23-44.39-49.25c-2.75-6.03-4.8-12.5-6.18-18.97c-1-4.7-3.43-5.99-7.54-5.96c-0.02-3.07-2.32-5.39-2.87-8.2
		c-1.34-6.88-4.72-13.7-1.21-20.87c7.92,2.45,8.53,2.17,8.92-4.64C72.73,89.28,72.6,85.62,72.62,81.96z"/>
	<path class="st16" d="M63.61,97.56c-3.51,7.17-0.13,13.99,1.21,20.87c0.55,2.82,2.85,5.13,2.87,8.2c-11.41,0-22.81,0.01-34.22,0.01
		c-3.18-19.73-8.42-38.97-13.83-58.17c-1.5-5.32-1.16-8.68,5.51-8.84c8.25-0.19,15.44-5.34,23.85-5.38
		c2.36-0.01,4.39-0.85,5.05,2.27C56.94,70.28,61.76,83.57,63.61,97.56z"/>
	<path class="st18" d="M296.21,126.63c0.86-10.07,5.33-19.15,7.96-28.73c1.05-3.84,1.63-6.7-3.64-6.85c0.63-7.31,3-14.25,4.39-21.37
		c1.07-5.51,3.87-5.86,7.71-4.77c7.55,2.12,15.07,4.08,22.98,4.1c5.54,0.01,6.33,3.88,4.76,7.61c-4.69,11.16-2.52,23.59-7.13,34.83
		c-1.89,4.61-1.15,10.29-1.6,15.49C319.83,126.83,308.02,126.73,296.21,126.63z"/>
	<path class="st19" d="M251.08,90.93c0.21,14.87-5.77,28.65-7.48,43.24c-0.02-19.04-4.18-38.25,3.08-56.8
		c0.15,3.23,0.34,6.45,0.42,9.68C247.16,89.7,248.44,90.98,251.08,90.93z"/>
</g>
</svg>
