<?xml version="1.0" encoding="utf-8"?>
<!-- Generator: Adobe Illustrator 25.4.1, SVG Export Plug-In . SVG Version: 6.00 Build 0)  -->
<svg version="1.1" id="Layer_1" xmlns="http://www.w3.org/2000/svg" xmlns:xlink="http://www.w3.org/1999/xlink" x="0px" y="0px"
	 viewBox="0 0 360 360" style="enable-background:new 0 0 360 360;" xml:space="preserve">
<style type="text/css">
	.st0{fill:#FEB201;}
	.st1{fill:#995204;}
	.st2{fill:#00BBD4;}
	.st3{fill:#689E39;}
	.st4{fill:#016B6B;}
	.st5{fill:#8BC24A;}
	.st6{fill:#5D4038;}
	.st7{fill:#FDD502;}
	.st8{fill:#2296F2;}
	.st9{fill:#3D2622;}
	.st10{fill:#F44337;}
	.st11{fill:#C52827;}
	.st12{fill:#FDC108;}
	.st13{fill:#FDC109;}
	.st14{fill:#FEED57;}
	.st15{fill:#FDED58;}
	.st16{fill:#FDC008;}
	.st17{fill:#FDED57;}
	.st18{fill:#FDC009;}
	.st19{fill:#F7E69F;}
	.st20{fill:#FEC008;}
	.st21{fill:#8BC24B;}
	.st22{fill:#DBE675;}
	.st23{fill:#FB3E03;}
	.st24{fill:#FA3E03;}
	.st25{fill:#FBE93B;}
	.st26{fill:#317E31;}
	.st27{fill:#FDB203;}
	.st28{fill:#2396F0;}
	.st29{fill:#3F51B4;}
	.st30{fill:#FDDF7E;}
	.st31{fill:#309BEE;}
	.st32{fill:#2B97EA;}
	.st33{fill:#2C97EA;}
	.st34{fill:#FBDD7B;}
	.st35{fill:#FBDC79;}
	.st36{fill:#FCDD7D;}
	.st37{fill:#FCDD7C;}
	.st38{fill:#FBDE7F;}
	.st39{fill:#FCDF80;}
	.st40{fill:#FFFFFF;}
	.st41{fill:#C52828;}
	.st42{fill:#EE9899;}
	.st43{fill:#9D9D24;}
	.st44{fill:#FED44F;}
	.st45{fill:#8C6E63;}
	.st46{fill:#8D6E63;}
	.st47{fill:#BFC933;}
	.st48{fill:#FCB306;}
	.st49{fill:#FAB409;}
	.st50{fill:#D50000;}
	.st51{fill:#FDE47F;}
	.st52{fill:#FE9F00;}
	.st53{fill:#90C9F7;}
	.st54{fill:#FDC928;}
	.st55{fill:#FCC305;}
	.st56{fill:#FC897E;}
	.st57{fill:#FCC405;}
	.st58{fill:#FBC507;}
	.st59{fill:#FBC60F;}
	.st60{fill:#FCD44F;}
	.st61{fill:#FE9701;}
	.st62{fill:#FD3D02;}
	.st63{fill:#8C6E62;}
	.st64{fill:#FE3D00;}
	.st65{fill:#3F2822;}
	.st66{fill:#402821;}
	.st67{fill:#699F38;}
	.st68{fill:#699F39;}
	.st69{fill:#FAD251;}
	.st70{fill:#F9D250;}
	.st71{fill:#EE6C02;}
	.st72{fill:#FDCB7F;}
	.st73{fill:#EE6C01;}
	.st74{fill:#FECB7F;}
	.st75{fill:#FCCB7F;}
	.st76{fill:#BE360C;}
	.st77{fill:#ED6C02;}
	.st78{fill:#8FCAF8;}
	.st79{fill:#BADDFA;}
	.st80{fill:#9B8178;}
	.st81{fill:#FCCC81;}
	.st82{fill:#31B954;}
	.st83{fill:#31BA54;}
	.st84{fill:#31BA55;}
	.st85{fill:#30BA55;}
	.st86{fill:#2EBB52;}
	.st87{fill:#30BA54;}
	.st88{fill:#30BA53;}
	.st89{fill:#2FBB52;}
	.st90{fill:#32B953;}
</style>
<g>
	<path class="st43" d="M297.69,89.17c6.44,11.5,12.81,22.99,16.11,35.95c8.92,35.03-3.15,69.12-32.14,88.41
		c-18.86,12.55-39.82,15.19-61.73,10.8c-13.01-2.61-25.32-7.23-36.21-15.05c-1.7-1.22-3.45-1.32-5.34-1.29
		c-9.3-8.24-18.11-16.99-26.3-26.34c0.43-5.51-4.04-8.75-6.21-13.01c-13.2-25.93-16.91-52.52-5.05-79.79
		c15.29-35.15,52.12-50.68,89.41-43.65c14.74,2.78,27.5,10.03,40.52,16.79c1.15,6.73,8.47,5.49,12.25,9.37
		C288.43,76.97,291.55,84.31,297.69,89.17z M206.92,86.21c0.12-9.9-8.5-17.24-18.28-14.68c-12.74,3.33-22.04,10.8-25.91,24.1
		c-3.85,13.23,4.22,23,17.63,20.95C192.45,114.72,206.77,98.36,206.92,86.21z"/>
	<path class="st44" d="M70.08,264.2c-8.8-15.05-19.29-28.95-29.68-42.88c-4.64-6.23-7.64-13.63-13.69-18.87
		c-2.27-1.97-2.2-4.77-0.44-7.17c12.95-17.59,26.26-34.93,38.79-52.81c4.12-5.88,6.31-5.31,11.14-0.99
		C90.2,154,102.37,168.3,116,181.15c6.28,5.92,12.76,11.63,19.15,17.44c7.45,10.09,16.22,18.86,26.3,26.31
		c12.6,13.91,25.39,27.62,39.68,39.85c6.81,5.83,7.21,7.64,0.04,14.41c-19.89,18.76-35.57,41.31-55.03,60.39
		c-4.03,3.96-6.49,9.09-11.3,13.59c-15.54-18.38-27.17-39.16-41.99-57.53C85.38,285.05,78.99,273.71,70.08,264.2z M83.66,207.75
		c7.74,0.14,13.82-6.07,13.97-14.27c0.13-6.88-5.75-12.97-12.59-13.04c-7.73-0.09-14.53,5.65-14.71,12.4
		C70.11,201.02,76.01,207.62,83.66,207.75z M97.57,235.56c0.26-4.9-3.93-9.4-8.86-9.52c-4.89-0.12-9.38,4.24-9.21,9.13
		c0.19,5.28,3.4,8.14,8.29,8.9C92.64,244.82,97.3,240.52,97.57,235.56z"/>
	<path class="st45" d="M70.08,264.2c8.9,9.51,15.29,20.85,22.76,31.41c-6.44,6.38-13.31,12.39-19.25,19.21
		c-19.27,22.11-45.48,33.12-71.08,45.16c-0.5,0.23-1.35-0.28-2.52-0.55C15.01,321.42,39.36,290.48,70.08,264.2z"/>
	<path class="st45" d="M297.69,89.17c-6.14-4.86-9.26-12.2-14.7-17.79c-3.78-3.88-11.1-2.65-12.25-9.37
		C293.76,32.75,323.88,13.76,360-0.03c-5.44,14.26-13.17,25.33-19.03,37.31c-8.3,16.96-21.33,30.03-34.77,42.8
		C303.19,82.93,300.51,86.13,297.69,89.17z"/>
	<path class="st46" d="M161.45,224.89c-10.09-7.45-18.86-16.22-26.3-26.31c5.04-6.24,10.76-11.81,16.93-16.93
		c8.2,9.35,17,18.09,26.3,26.34C173.27,214.17,167.64,219.81,161.45,224.89z"/>
	<path class="st47" d="M206.92,86.21c-0.15,12.15-14.46,28.52-26.57,30.37c-13.4,2.05-21.48-7.72-17.63-20.95
		c3.87-13.3,13.17-20.77,25.91-24.1C198.42,68.97,207.04,76.31,206.92,86.21z"/>
	<path class="st48" d="M83.66,207.75c-7.64-0.14-13.55-6.73-13.33-14.91c0.18-6.76,6.97-12.49,14.71-12.4
		c6.85,0.08,12.72,6.16,12.59,13.04C97.48,201.68,91.4,207.89,83.66,207.75z"/>
	<path class="st49" d="M97.57,235.56c-0.26,4.96-4.93,9.26-9.78,8.5c-4.88-0.76-8.1-3.62-8.29-8.9c-0.17-4.89,4.32-9.24,9.21-9.13
		C93.64,226.16,97.83,230.66,97.57,235.56z"/>
</g>
</svg>
