<?xml version="1.0" encoding="utf-8"?>
<!-- Generator: Adobe Illustrator 25.4.1, SVG Export Plug-In . SVG Version: 6.00 Build 0)  -->
<svg version="1.1" id="Layer_1" xmlns="http://www.w3.org/2000/svg" xmlns:xlink="http://www.w3.org/1999/xlink" x="0px" y="0px"
	 viewBox="0 0 360 360" style="enable-background:new 0 0 360 360;" xml:space="preserve">
<style type="text/css">
	.st0{fill:#FEB201;}
	.st1{fill:#995204;}
	.st2{fill:#00BBD4;}
	.st3{fill:#689E39;}
	.st4{fill:#016B6B;}
	.st5{fill:#8BC24A;}
	.st6{fill:#5D4038;}
	.st7{fill:#FDD502;}
	.st8{fill:#2296F2;}
	.st9{fill:#3D2622;}
	.st10{fill:#F44337;}
	.st11{fill:#C52827;}
	.st12{fill:#FDC108;}
	.st13{fill:#FDC109;}
	.st14{fill:#FEED57;}
	.st15{fill:#FDED58;}
	.st16{fill:#FDC008;}
	.st17{fill:#FDED57;}
	.st18{fill:#FDC009;}
	.st19{fill:#F7E69F;}
	.st20{fill:#FEC008;}
	.st21{fill:#8BC24B;}
	.st22{fill:#DBE675;}
	.st23{fill:#FB3E03;}
	.st24{fill:#FA3E03;}
	.st25{fill:#FBE93B;}
	.st26{fill:#317E31;}
	.st27{fill:#FDB203;}
	.st28{fill:#2396F0;}
	.st29{fill:#3F51B4;}
	.st30{fill:#FDDF7E;}
	.st31{fill:#309BEE;}
	.st32{fill:#2B97EA;}
	.st33{fill:#2C97EA;}
	.st34{fill:#FBDD7B;}
	.st35{fill:#FBDC79;}
	.st36{fill:#FCDD7D;}
	.st37{fill:#FCDD7C;}
	.st38{fill:#FBDE7F;}
	.st39{fill:#FCDF80;}
	.st40{fill:#FFFFFF;}
	.st41{fill:#C52828;}
	.st42{fill:#EE9899;}
	.st43{fill:#9D9D24;}
	.st44{fill:#FED44F;}
	.st45{fill:#8C6E63;}
	.st46{fill:#8D6E63;}
	.st47{fill:#BFC933;}
	.st48{fill:#FCB306;}
	.st49{fill:#FAB409;}
	.st50{fill:#D50000;}
	.st51{fill:#FDE47F;}
	.st52{fill:#FE9F00;}
	.st53{fill:#90C9F7;}
	.st54{fill:#FDC928;}
	.st55{fill:#FCC305;}
	.st56{fill:#FC897E;}
	.st57{fill:#FCC405;}
	.st58{fill:#FBC507;}
	.st59{fill:#FBC60F;}
	.st60{fill:#FCD44F;}
	.st61{fill:#FE9701;}
	.st62{fill:#FD3D02;}
	.st63{fill:#8C6E62;}
	.st64{fill:#FE3D00;}
	.st65{fill:#3F2822;}
	.st66{fill:#402821;}
	.st67{fill:#699F38;}
	.st68{fill:#699F39;}
	.st69{fill:#FAD251;}
	.st70{fill:#F9D250;}
	.st71{fill:#EE6C02;}
	.st72{fill:#FDCB7F;}
	.st73{fill:#EE6C01;}
	.st74{fill:#FECB7F;}
	.st75{fill:#FCCB7F;}
	.st76{fill:#BE360C;}
	.st77{fill:#ED6C02;}
	.st78{fill:#8FCAF8;}
	.st79{fill:#BADDFA;}
	.st80{fill:#9B8178;}
	.st81{fill:#FCCC81;}
	.st82{fill:#31B954;}
	.st83{fill:#31BA54;}
	.st84{fill:#31BA55;}
	.st85{fill:#30BA55;}
	.st86{fill:#2EBB52;}
	.st87{fill:#30BA54;}
	.st88{fill:#30BA53;}
	.st89{fill:#2FBB52;}
	.st90{fill:#32B953;}
</style>
<g>
	<path class="st71" d="M-0.77,86.73c-2.12-14.29,4.59-23.84,15.68-32.06C34.83,39.9,57.88,33.15,81.37,27.91
		c40.85-9.1,82.41-11.94,124.12-9.51c39.97,2.33,79.57,7.45,117,23.27c9.6,4.06,18.33,9.45,26.31,15.8
		c9.15,7.28,13.87,17.14,11.94,29.32c-5.53,8.67-11.52,16.51-20.88,21.97c-28.84,16.84-60.36,24.32-92.97,28.52
		c-0.08-3.96-0.25-7.93-0.21-11.89c0.13-12.93,4.27-17.83,16.54-22.17c5.85-2.07,11.94-3.94,17.15-7.77
		c5.98-4.4,14.33-7.74,13.53-16.39c-0.75-8.08-8.38-11.91-15.09-15.42C254.77,51.07,228.19,49,202.04,46.9
		c-31.55-2.55-63.17,0.02-94.12,7.04c-13.79,3.13-27.68,7.19-38.02,18c-6.14,6.42-5.92,9.45,0.17,16.15
		c7.21,7.94,16.8,11.38,26.6,14.6c11.64,3.83,15.85,9.35,16.52,21.54c0.24,4.34-0.1,8.72-0.17,13.08
		c-25.63-2.66-50.27-9.13-74.06-19.02C22.69,111.51,7.51,103.49-0.77,86.73z"/>
	<path class="st71" d="M351.61,232.06c8.01,7.02,10.39,16,9.1,26.25c-8.35,16.06-22.93,24.41-38.72,31.24
		c-36.79,15.92-75.93,20.88-115.32,23.29c-24.81,1.52-49.73,0.89-74.65-1.64c-30.78-3.13-60.97-8.44-89.77-19.71
		c-17.32-6.77-33.96-15.29-42.92-33.25c-1.48-10.27,0.82-19.24,8.97-26.21c1.02,0.59,2.28,0.96,3.01,1.79
		c20.6,23.36,48.32,33.76,77.23,40.97c38.18,9.53,77.23,11.32,116.45,9.74c2.65-0.11,5.62,0.78,7.75-1.78
		c9.81,4.17,18.44,1.97,26.24-4.83c2.8,3.32,6.65,2.39,9.91,1.76c20.04-3.88,39.72-9.04,58.64-16.92
		C324.47,255.69,338.4,244.42,351.61,232.06z"/>
	<path class="st72" d="M-0.68,258.23c8.96,17.96,25.6,26.48,42.92,33.25c28.8,11.27,58.99,16.58,89.77,19.71
		c24.92,2.54,49.84,3.16,74.65,1.64c39.4-2.41,78.54-7.36,115.32-23.29c15.8-6.84,30.37-15.18,38.72-31.24
		c-0.66,23.31-14.56,38.53-32.53,50.13c-19.51,12.59-41.39,19.33-64.16,24.69c-38.21,9-76.83,10.9-115.38,8.11
		c-36.79-2.66-73.45-8.91-106.78-26.75c-17.38-9.3-32.11-21.19-39.93-40.19C-0.27,268.95-1.68,263.89-0.68,258.23z"/>
	<path class="st73" d="M-0.77,201.08c-1.42-10.28,0.84-19.29,9.05-26.24c1.02,0.57,2.31,0.91,3.04,1.74
		c20.51,23.41,48.18,33.9,77.08,40.97c36.17,8.85,73.13,11.65,110.38,9.79c0.01,9.68,0.02,19.35,0.03,29.03
		c-21.64-0.95-43.28,0.17-64.97-2.18c-29.04-3.14-57.78-7.31-85.17-17.51C29.17,229.42,9.45,221.61-0.77,201.08z"/>
	<path class="st74" d="M-0.77,201.08c10.22,20.53,29.94,28.35,49.44,35.6c27.39,10.2,56.13,14.37,85.17,17.51
		c21.69,2.35,43.33,1.23,64.97,2.18c-0.46,11.49,3.52,20.63,13.93,26.37c-2.13,2.56-5.09,1.67-7.75,1.78
		c-39.22,1.58-78.28-0.21-116.45-9.74c-28.91-7.21-56.63-17.62-77.23-40.97c-0.74-0.83-2-1.21-3.01-1.79
		c-0.05-5.42-3.67-9.45-5.84-13.94C-0.23,212.54-1.69,207.13-0.77,201.08z"/>
	<path class="st74" d="M198.78,227.34c-37.25,1.86-74.21-0.95-110.38-9.79c-28.9-7.07-56.57-17.57-77.08-40.97
		c-0.73-0.83-2.01-1.17-3.04-1.74c-0.11-5.4-3.68-9.45-5.86-13.95c-2.69-5.53-4.25-10.92-3.09-16.99
		c5.09,9.07,11.39,16.72,20.77,22.04c34.8,19.71,72.66,27.72,112.04,30.24c3.99,0.14,7.98,0.28,11.96,0.42
		c3.84,2.53,8.19,2.21,12.49,2.25c14.08,0.11,28.15,0.23,42.23,0.35C198.8,208.57,198.79,217.96,198.78,227.34z"/>
	<path class="st71" d="M132.13,196.18c-39.38-2.52-77.24-10.53-112.04-30.24c-9.38-5.31-15.68-12.96-20.77-22.04
		c-1.5-10.28,0.79-19.26,8.96-26.23c7.03,3.84,11.25,10.8,17.74,15.46c26.1,18.76,55.93,26.81,86.9,32.07
		C111.77,180.21,117.73,190.81,132.13,196.18z"/>
	<path class="st71" d="M351.63,174.87c7.89,7.08,10.44,16.01,9.12,26.28c-5.51,8.69-11.51,16.52-20.86,21.98
		c-28.84,16.85-60.38,24.28-92.99,28.51c0.04-9.76,0.08-19.51,0.12-29.27c17.12-2.89,33.85-7.08,50.32-12.79
		C318.33,202.3,335.87,190.09,351.63,174.87z"/>
	<path class="st71" d="M351.6,117.71c8.03,7.02,10.4,16,9.1,26.25c-5.36,8.83-11.48,16.6-20.83,21.98
		c-28.88,16.65-60.34,24.41-92.99,28.49c0.04-9.73,0.08-19.47,0.12-29.2c21.53-3.27,42.25-9.23,62.34-17.74
		C325.67,140.58,338.78,129.43,351.6,117.71z"/>
	<path class="st75" d="M246.89,251.64c32.61-4.23,64.15-11.67,92.99-28.51c9.35-5.46,15.35-13.29,20.86-21.98
		c1.06,6.52-1.02,12.21-3.8,18.05c-1.97,4.15-5.56,7.77-5.33,12.86c-13.21,12.36-27.14,23.63-44.09,30.69
		c-18.92,7.89-38.6,13.04-58.64,16.92c-3.26,0.63-7.1,1.55-9.91-1.76C247.59,270.96,246.61,261.11,246.89,251.64z"/>
	<path class="st75" d="M351.6,117.71c-12.82,11.72-25.93,22.87-42.26,29.78c-20.09,8.51-40.81,14.47-62.34,17.74
		c-0.04-9.32-0.08-18.63-0.11-27.95c32.62-4.2,64.14-11.68,92.97-28.52c9.35-5.46,15.35-13.3,20.88-21.97
		c1.08,6.52-1.02,12.21-3.79,18.06C354.98,109,351.37,112.62,351.6,117.71z"/>
	<path class="st75" d="M112.92,165.2c-30.97-5.25-60.8-13.31-86.9-32.07c-6.49-4.66-10.71-11.62-17.74-15.46
		c-0.03-5.43-3.67-9.45-5.84-13.94c-2.67-5.54-4.14-10.95-3.22-17c8.28,16.77,23.46,24.79,39.73,31.55
		c23.79,9.89,48.43,16.36,74.06,19.02C112.99,146.59,112.95,155.89,112.92,165.2z"/>
	<path class="st72" d="M246.88,194.43c32.66-4.07,64.11-11.84,92.99-28.49c9.35-5.39,15.47-13.16,20.83-21.98
		c1.44,7.87-2.57,14.42-5.3,21.23c-1.29,3.22-3.93,5.89-3.78,9.68c-15.76,15.23-33.3,27.44-54.3,34.72
		c-16.46,5.71-33.2,9.89-50.32,12.79C246.97,213.06,246.93,203.74,246.88,194.43z"/>
	<path class="st76" d="M246.88,194.43c0.04,9.32,0.08,18.63,0.13,27.95c-0.04,9.76-0.08,19.51-0.12,29.27
		c-0.28,9.47,0.7,19.32-7.92,26.27c-7.79,6.8-16.43,9-26.24,4.83c-10.41-5.75-14.39-14.88-13.93-26.37
		c-0.01-9.68-0.02-19.35-0.03-29.03c0.01-9.38,0.02-18.76,0.03-28.15c-0.01-9.68-0.02-19.35-0.03-29.03
		c0.01-9.38,0.02-18.75,0.03-28.13c0.06-3.55,0.32-7.11,0.16-10.65c-0.42-9.05-6.53-14.32-13.83-17.43
		c-7.27-3.1-13.77,0.55-19.08,5.87c-6.31,6.33-5.49,14.32-4.96,22.21c0.01,9.38,0.02,18.76,0.03,28.13
		c1.03,13.13-8.53,19.44-17.04,26.43c-3.99-0.14-7.98-0.28-11.96-0.42c-14.41-5.37-20.36-15.97-19.21-30.98
		c0.03-9.3,0.06-18.6,0.09-27.9c0.07-4.36,0.41-8.74,0.17-13.08c-0.67-12.19-4.88-17.71-16.52-21.54c-9.8-3.22-19.39-6.66-26.6-14.6
		c-6.09-6.7-6.32-9.72-0.17-16.15c10.34-10.81,24.24-14.87,38.02-18c30.95-7.02,62.57-9.58,94.12-7.04
		c26.15,2.11,52.73,4.18,76.76,16.75c6.71,3.51,14.34,7.34,15.09,15.42c0.8,8.65-7.55,11.99-13.53,16.39
		c-5.21,3.83-11.3,5.7-17.15,7.77c-12.27,4.35-16.42,9.24-16.54,22.17c-0.04,3.96,0.14,7.93,0.21,11.89
		c0.04,9.32,0.08,18.63,0.11,27.95C246.96,174.96,246.92,184.7,246.88,194.43z"/>
	<path class="st73" d="M198.78,170.16c0.01,9.68,0.02,19.35,0.03,29.03c-14.08-0.12-28.15-0.24-42.23-0.35
		c-4.29-0.03-8.65,0.29-12.49-2.25c8.5-6.99,18.07-13.3,17.04-26.43C173.68,170.16,186.23,170.16,198.78,170.16z"/>
	<path class="st74" d="M198.78,170.16c-12.55,0-25.1,0-37.65,0c-0.01-9.38-0.02-18.76-0.03-28.13c12.57,0,25.14,0,37.71,0
		C198.8,151.41,198.79,160.78,198.78,170.16z"/>
	<path class="st77" d="M198.81,142.03c-12.57,0-25.14,0-37.71,0c-0.53-7.89-1.35-15.88,4.96-22.21c5.31-5.32,11.81-8.97,19.08-5.87
		c7.29,3.1,13.4,8.38,13.83,17.43C199.13,134.92,198.87,138.48,198.81,142.03z"/>
</g>
</svg>
