<?xml version="1.0" encoding="utf-8"?>
<!-- Generator: Adobe Illustrator 25.4.1, SVG Export Plug-In . SVG Version: 6.00 Build 0)  -->
<svg version="1.1" id="Layer_1" xmlns="http://www.w3.org/2000/svg" xmlns:xlink="http://www.w3.org/1999/xlink" x="0px" y="0px"
	 viewBox="0 0 360 360" style="enable-background:new 0 0 360 360;" xml:space="preserve">
<style type="text/css">
	.st0{fill:#FEB201;}
	.st1{fill:#995204;}
	.st2{fill:#00BBD4;}
	.st3{fill:#689E39;}
	.st4{fill:#016B6B;}
	.st5{fill:#8BC24A;}
	.st6{fill:#5D4038;}
	.st7{fill:#FDD502;}
	.st8{fill:#2296F2;}
	.st9{fill:#3D2622;}
	.st10{fill:#F44337;}
	.st11{fill:#C52827;}
	.st12{fill:#FDC108;}
	.st13{fill:#FDC109;}
	.st14{fill:#FEED57;}
	.st15{fill:#FDED58;}
	.st16{fill:#FDC008;}
	.st17{fill:#FDED57;}
	.st18{fill:#FDC009;}
	.st19{fill:#F7E69F;}
	.st20{fill:#FEC008;}
	.st21{fill:#8BC24B;}
	.st22{fill:#DBE675;}
	.st23{fill:#FB3E03;}
	.st24{fill:#FA3E03;}
	.st25{fill:#FBE93B;}
	.st26{fill:#317E31;}
	.st27{fill:#FDB203;}
	.st28{fill:#2396F0;}
	.st29{fill:#3F51B4;}
	.st30{fill:#FDDF7E;}
	.st31{fill:#309BEE;}
	.st32{fill:#2B97EA;}
	.st33{fill:#2C97EA;}
	.st34{fill:#FBDD7B;}
	.st35{fill:#FBDC79;}
	.st36{fill:#FCDD7D;}
	.st37{fill:#FCDD7C;}
	.st38{fill:#FBDE7F;}
	.st39{fill:#FCDF80;}
	.st40{fill:#FFFFFF;}
	.st41{fill:#C52828;}
	.st42{fill:#EE9899;}
	.st43{fill:#9D9D24;}
	.st44{fill:#FED44F;}
	.st45{fill:#8C6E63;}
	.st46{fill:#8D6E63;}
	.st47{fill:#BFC933;}
	.st48{fill:#FCB306;}
	.st49{fill:#FAB409;}
	.st50{fill:#D50000;}
	.st51{fill:#FDE47F;}
	.st52{fill:#FE9F00;}
	.st53{fill:#90C9F7;}
	.st54{fill:#FDC928;}
	.st55{fill:#FCC305;}
	.st56{fill:#FC897E;}
	.st57{fill:#FCC405;}
	.st58{fill:#FBC507;}
	.st59{fill:#FBC60F;}
	.st60{fill:#FCD44F;}
	.st61{fill:#FE9701;}
	.st62{fill:#FD3D02;}
	.st63{fill:#8C6E62;}
	.st64{fill:#FE3D00;}
	.st65{fill:#3F2822;}
	.st66{fill:#402821;}
	.st67{fill:#699F38;}
	.st68{fill:#699F39;}
	.st69{fill:#FAD251;}
	.st70{fill:#F9D250;}
	.st71{fill:#EE6C02;}
	.st72{fill:#FDCB7F;}
	.st73{fill:#EE6C01;}
	.st74{fill:#FECB7F;}
	.st75{fill:#FCCB7F;}
	.st76{fill:#BE360C;}
	.st77{fill:#ED6C02;}
	.st78{fill:#8FCAF8;}
	.st79{fill:#BADDFA;}
	.st80{fill:#9B8178;}
	.st81{fill:#FCCC81;}
	.st82{fill:#31B954;}
	.st83{fill:#31BA54;}
	.st84{fill:#31BA55;}
	.st85{fill:#30BA55;}
	.st86{fill:#2EBB52;}
	.st87{fill:#30BA54;}
	.st88{fill:#30BA53;}
	.st89{fill:#2FBB52;}
	.st90{fill:#32B953;}
</style>
<g>
	<path class="st60" d="M307.31,239.96c-16.89,6.61-33.66,13.6-50.76,19.62c-5.55,1.95-10.14,7.33-16.93,5.47
		c-10.76-14.44-18.42-16.04-34.9-7.73c-5.01,2.52-9.54,6.41-15.63,6.88c-2-4.12-0.81-7.61,0.29-11.2c1.57-5.13-0.83-9.02-4.88-11.7
		c-3.93-2.59-7.48-1-11.42,1.31c-16.36,9.58-26.68,30.57-17.8,56.47c-5.48,0.87-9.45,6.01-15.43,5.47
		c-1.55-5.13-2.54-10.51-4.74-15.35c-8.02-17.7-21.98-28.01-41.33-29.09c-20.69-1.16-37.27,7.41-47.52,25.72
		c-10.35,18.48-7.57,36.6,3.88,53.81C34.81,347.97,17.67,351.59,0,360.03c11.36-28.92,22-55.6,32.33-82.39
		c14.46-37.5,28.54-75.15,43.06-112.62c8.67-22.39,17.9-44.57,26.83-66.86c6.06-15.13,10.62-30.85,17.86-45.51
		C208.86,88.71,271,151.43,307.31,239.96z M189.99,125.14c0.19-24.61-20.22-45.07-44.97-45.1c-23.95-0.02-44.55,20.19-44.93,44.1
		c-0.39,24.56,19.96,45.53,44.44,45.8C169.13,170.21,189.81,149.83,189.99,125.14z M219.96,199.92c16.48,0.09,29.94-13.32,30-29.89
		c0.06-16.38-13.5-29.99-29.91-30.04c-16.43-0.04-29.93,13.4-30.03,29.91C189.93,186.24,203.48,199.83,219.96,199.92z
		 M130.06,220.37c0.29-16.33-13.16-30.19-29.53-30.42c-16.42-0.23-30.15,13.1-30.41,29.54c-0.27,16.54,12.95,30.14,29.53,30.39
		C116.18,250.13,129.77,236.94,130.06,220.37z M178.91,229.89c5.21,0.81,10.69-1.41,16.35-2.47c4.55-0.85,4.7-3.35,3.82-7.23
		c-6.02-26.29-27.77-38.47-53.59-30.47c-4.98,1.54-6,3.97-4.91,7.95C145.1,214.14,153.01,230.57,178.91,229.89z M279.94,211.03
		c0.66-5.12-0.93-10.7-2.75-16.23c-1.24-3.78-3.49-4.76-7.64-3.7c-26.78,6.88-37.64,27.83-29.63,54.23c1.38,4.55,4.05,4.57,7.5,4.1
		C267.41,246.7,279.87,232.3,279.94,211.03z"/>
	<path class="st61" d="M307.31,239.96C271,151.43,208.86,88.71,120.08,52.64c-2.06-8.45,3.65-15.15,5.78-22.51
		c2.13-7.37,5.28-14.79,7.8-22.1c2.89-8.41,7.62-9.13,14.08-7.1c30.34,9.52,58.88,23.07,85.61,40.22
		c46.6,29.91,80.59,70.87,103.8,120.86c7.78,16.76,14.68,33.94,21.75,51.02c1.89,4.57,1.73,9.57-3.65,11.65
		C339.59,230.74,324.39,238.35,307.31,239.96z"/>
	<path class="st62" d="M50.14,339.64c-11.45-17.21-14.23-35.33-3.88-53.81c10.25-18.3,26.83-26.88,47.52-25.72
		c19.35,1.09,33.31,11.39,41.33,29.09c2.19,4.84,3.19,10.22,4.74,15.35c-20.03,9.84-41.22,16.8-61.94,24.93
		C68.77,333.08,59.95,337.78,50.14,339.64z"/>
	<path class="st63" d="M155.29,299.09c-8.88-25.9,1.44-46.88,17.8-56.47c3.93-2.3,7.49-3.9,11.42-1.31
		c4.05,2.67,6.45,6.57,4.88,11.7c-1.1,3.59-2.29,7.07-0.29,11.2c6.09-0.47,10.62-4.36,15.63-6.88c16.48-8.31,24.14-6.71,34.9,7.73
		c-9.16,6.54-20.04,9.09-30.3,13.07C191.31,285.1,173.3,292.1,155.29,299.09z"/>
	<path class="st64" d="M189.99,125.14c-0.19,24.69-20.86,45.07-45.46,44.8c-24.48-0.27-44.83-21.24-44.44-45.8
		c0.38-23.91,20.98-44.12,44.93-44.1C169.77,80.06,190.18,100.53,189.99,125.14z"/>
	<path class="st65" d="M219.96,199.92c-16.47-0.09-30.03-13.68-29.93-30.02c0.1-16.51,13.59-29.95,30.03-29.91
		c16.4,0.04,29.96,13.66,29.91,30.04C249.9,186.6,236.44,200.02,219.96,199.92z M220.05,155.02c-8.13-0.07-14.91,6.66-14.99,14.89
		c-0.08,8.13,6.66,14.92,14.89,15c8.13,0.08,14.91-6.66,14.99-14.9C235.01,161.9,228.25,155.09,220.05,155.02z"/>
	<path class="st66" d="M130.06,220.37c-0.29,16.57-13.88,29.76-30.41,29.51c-16.58-0.25-29.79-13.85-29.53-30.39
		c0.26-16.45,13.99-29.78,30.41-29.54C116.89,190.18,130.35,204.04,130.06,220.37z M115.05,219.98c0.18-8.18-6.4-14.81-14.88-15.01
		c-8.14-0.19-14.97,6.56-15.03,14.86c-0.06,8.21,6.57,14.9,14.91,15.05C108.25,235.02,114.87,228.45,115.05,219.98z"/>
	<path class="st67" d="M178.91,229.89c-25.9,0.68-33.81-15.75-38.33-32.21c-1.09-3.99-0.08-6.41,4.91-7.95
		c25.82-8.01,47.57,4.18,53.59,30.47c0.89,3.88,0.73,6.38-3.82,7.23C189.6,228.48,184.12,230.7,178.91,229.89z"/>
	<path class="st68" d="M279.94,211.03c-0.08,21.27-12.53,35.67-32.52,38.39c-3.45,0.47-6.11,0.46-7.5-4.1
		c-8.01-26.4,2.85-47.35,29.63-54.23c4.15-1.07,6.4-0.08,7.64,3.7C279.01,200.33,280.6,205.92,279.94,211.03z"/>
	<path class="st69" d="M220.05,155.02c8.2,0.07,14.97,6.88,14.89,14.99c-0.08,8.23-6.86,14.97-14.99,14.9
		c-8.24-0.08-14.98-6.87-14.89-15C205.14,161.68,211.92,154.95,220.05,155.02z"/>
	<path class="st70" d="M115.05,219.98c-0.18,8.47-6.8,15.04-15,14.9c-8.34-0.15-14.97-6.84-14.91-15.05
		c0.06-8.3,6.89-15.05,15.03-14.86C108.65,205.16,115.23,211.8,115.05,219.98z"/>
</g>
</svg>
